<mxfile host="app.diagrams.net" agent="Mozilla/5.0 (X11; Linux x86_64) AppleWebKit/537.36 (KHTML, like Gecko) Chrome/129.0.0.0 Safari/537.36" border="50" scale="3" compressed="false" locked="false" version="24.8.4">
  <diagram name="Blank" id="YmL12bMKpDGza6XwsDPr">
    <mxGraphModel dx="1434" dy="722" grid="0" gridSize="10" guides="1" tooltips="1" connect="1" arrows="1" fold="1" page="1" pageScale="1" pageWidth="827" pageHeight="1169" background="none" math="1" shadow="0">
      <root>
        <mxCell id="X5NqExCQtvZxIxQ7pmgY-0" />
        <mxCell id="1" parent="X5NqExCQtvZxIxQ7pmgY-0" />
        <mxCell id="NjAqU9Y5rHBkyYTPuW-a-1" value="" style="swimlane;fontStyle=2;childLayout=stackLayout;horizontal=1;startSize=20;fillColor=none;horizontalStack=1;resizeParent=1;resizeParentMax=0;resizeLast=0;collapsible=0;marginBottom=0;swimlaneFillColor=none;strokeColor=none;fontFamily=Helvetica;fontSize=14;fontColor=#BABABA;points=[];verticalAlign=middle;stackBorder=10;stackSpacing=-10;resizable=1;" parent="1" vertex="1">
          <mxGeometry x="221" y="110" width="300" height="100" as="geometry" />
        </mxCell>
        <mxCell id="NjAqU9Y5rHBkyYTPuW-a-2" value="Define" style="shape=step;perimeter=stepPerimeter;strokeColor=#82b366;fontFamily=Helvetica;fontSize=14;fillColor=#d5e8d4;fixedSize=1;size=17;fontStyle=1;strokeWidth=2;spacingTop=0;points=[];" parent="NjAqU9Y5rHBkyYTPuW-a-1" vertex="1">
          <mxGeometry x="10" y="30" width="100" height="60" as="geometry" />
        </mxCell>
        <mxCell id="NjAqU9Y5rHBkyYTPuW-a-4" value="Demo" style="shape=step;perimeter=stepPerimeter;fontFamily=Helvetica;fontSize=14;fixedSize=1;size=17;fontStyle=1;strokeWidth=2;spacingTop=0;points=[];fillColor=#fff2cc;strokeColor=#d6b656;" parent="NjAqU9Y5rHBkyYTPuW-a-1" vertex="1">
          <mxGeometry x="100" y="30" width="100" height="60" as="geometry" />
        </mxCell>
        <mxCell id="NjAqU9Y5rHBkyYTPuW-a-5" value="Deploy" style="shape=step;perimeter=stepPerimeter;strokeColor=#B85450;fontFamily=Helvetica;fontSize=14;fontColor=#B85450;fillColor=#f8cecc;fixedSize=1;size=17;fontStyle=1;strokeWidth=2;spacingTop=0;points=[];" parent="NjAqU9Y5rHBkyYTPuW-a-1" vertex="1">
          <mxGeometry x="190" y="30" width="100" height="60" as="geometry" />
        </mxCell>
        <mxCell id="0Lt0FZe-Nc1CYKFT6Muo-1" value="Set goals and&#xa; target audience" style="shape=step;perimeter=stepPerimeter;strokeColor=#82b366;fontFamily=Helvetica;fontSize=11;fillColor=#d5e8d4;fixedSize=1;size=12;fontStyle=1;strokeWidth=2;spacingTop=0;points=[];spacing=4;" vertex="1" parent="1">
          <mxGeometry x="218" y="205" width="107" height="73" as="geometry" />
        </mxCell>
        <mxCell id="0Lt0FZe-Nc1CYKFT6Muo-2" value="&#xa;Message us, and&#xa; we&#39;ll follow up!&#xa;" style="shape=step;perimeter=stepPerimeter;strokeColor=#6c8ebf;fontFamily=Helvetica;fontSize=11;fillColor=#dae8fc;fixedSize=1;size=12;fontStyle=1;strokeWidth=2;spacingTop=0;points=[];spacing=10;" vertex="1" parent="1">
          <mxGeometry x="108" y="205" width="117" height="73" as="geometry" />
        </mxCell>
        <mxCell id="0Lt0FZe-Nc1CYKFT6Muo-3" value="Build, test, and &#xa; gather feedback." style="shape=step;perimeter=stepPerimeter;fontFamily=Helvetica;fontSize=11;fixedSize=1;size=12;fontStyle=1;strokeWidth=2;spacingTop=0;points=[];fillColor=#fff2cc;strokeColor=#d6b656;" vertex="1" parent="1">
          <mxGeometry x="318" y="205" width="112" height="73" as="geometry" />
        </mxCell>
        <mxCell id="0Lt0FZe-Nc1CYKFT6Muo-4" value="  Launch, monitor,&#xa;  and maintain site." style="shape=step;perimeter=stepPerimeter;strokeColor=#B85450;fontFamily=Helvetica;fontSize=11;fontColor=#B85450;fillColor=#f8cecc;fixedSize=1;size=12;fontStyle=1;strokeWidth=2;spacingTop=0;points=[];" vertex="1" parent="1">
          <mxGeometry x="423" y="205" width="113" height="73" as="geometry" />
        </mxCell>
        <mxCell id="NjAqU9Y5rHBkyYTPuW-a-3" value="Contact" style="shape=step;perimeter=stepPerimeter;strokeColor=#6c8ebf;fontFamily=Helvetica;fontSize=14;fillColor=#dae8fc;fixedSize=1;size=17;fontStyle=1;strokeWidth=2;spacingTop=0;points=[];" parent="1" vertex="1">
          <mxGeometry x="141" y="140" width="100" height="60" as="geometry" />
        </mxCell>
      </root>
    </mxGraphModel>
  </diagram>
</mxfile>
